<svg xmlns="http://www.w3.org/2000/svg" width="307" height="312" viewBox="0 0 307 312" fill="none">
  <defs>
    <linearGradient id="blue" x1="57" y1="32" x2="265" y2="290" gradientUnits="userSpaceOnUse">
      <stop offset="0" stop-color="#0B8CFF"/>
      <stop offset="0.52" stop-color="#0874F4"/>
      <stop offset="1" stop-color="#1237D8"/>
    </linearGradient>
    <linearGradient id="blue2" x1="18" y1="141" x2="92" y2="263" gradientUnits="userSpaceOnUse">
      <stop offset="0" stop-color="#087EFF"/>
      <stop offset="1" stop-color="#173AD8"/>
    </linearGradient>
    <filter id="shadow" x="-20%" y="-20%" width="140%" height="150%">
      <feDropShadow dx="0" dy="3" stdDeviation="3" flood-color="#0758D8" flood-opacity=".16"/>
    </filter>
  </defs>

  <!-- Outer document frame -->
  <path d="M52 69C52 46.9 69.9 29 92 29H211.8C220.8 29 229.4 32.6 235.8 39L277.8 81C284.2 87.4 287.8 96 287.8 105V258C287.8 280.1 269.9 298 247.8 298H92C69.9 298 52 280.1 52 258V69Z"
        fill="url(#blue)" filter="url(#shadow)"/>

  <!-- Folded corner -->
  <path d="M211.8 29V69C211.8 78.9 219.8 87 229.8 87H269.8L211.8 29Z" fill="#0759E8"/>
  <path d="M211.8 29L269.8 87H229.8C219.8 87 211.8 78.9 211.8 69V29Z" fill="url(#blue)"/>

  <!-- White page -->
  <path d="M75 72C75 57.1 87.1 45 102 45H209.5C212.5 45 215 47.5 215 50.5V84C215 94.5 223.5 103 234 103H263C266.3 103 269 105.7 269 109V252C269 263.6 259.6 273 248 273H101C86.6 273 75 261.4 75 247V72Z"
        fill="white"/>

  <!-- Subtle page corner -->
  <path d="M215 84C215 94.5 223.5 103 234 103H263L215 55V84Z" fill="#EAF2FF"/>

  <!-- Profile circle -->
  <circle cx="123" cy="101" r="29.5" fill="url(#blue)"/>
  <circle cx="123" cy="92" r="10.5" fill="white"/>
  <path d="M104 120.5C106.8 111.8 114.2 106.5 123 106.5C131.8 106.5 139.2 111.8 142 120.5C136.9 124.8 130.2 127 123 127C115.8 127 109.1 124.8 104 120.5Z" fill="white"/>

  <!-- Header text line -->
  <rect x="166" y="88" width="34" height="8" rx="4" fill="url(#blue)"/>
  <rect x="166" y="111" width="76" height="8" rx="4" fill="url(#blue)"/>

  <!-- Resume bullet lines -->
  <circle cx="109" cy="156" r="5.5" fill="url(#blue)"/>
  <rect x="125" y="152" width="117" height="8" rx="4" fill="url(#blue)"/>

  <circle cx="109" cy="184" r="5.5" fill="url(#blue)"/>
  <rect x="125" y="180" width="117" height="8" rx="4" fill="url(#blue)"/>

  <circle cx="109" cy="212" r="5.5" fill="url(#blue)"/>
  <rect x="125" y="208" width="117" height="8" rx="4" fill="url(#blue)"/>

  <circle cx="109" cy="240" r="5.5" fill="url(#blue)"/>
  <rect x="125" y="236" width="84" height="8" rx="4" fill="url(#blue)"/>

  <!-- Pencil -->
  <path d="M19.3 158.7L43.2 145C47.1 142.8 52.1 144.1 54.4 148L87.2 205C89.5 209 88.1 214.1 84.1 216.4L60.2 230.1L19.3 158.7Z"
        fill="url(#blue2)"/>
  <path d="M19.3 158.7L43.2 145C47.1 142.8 52.1 144.1 54.4 148L62.1 161.4L38.2 175.1L19.3 158.7Z"
        fill="#0B7EFF"/>
  <path d="M60.2 230.1L68.4 256.4L91.3 238.1L84.1 216.4L60.2 230.1Z" fill="white"/>
  <path d="M68.4 256.4L64.6 264.2L72.9 259.4L91.3 238.1L68.4 256.4Z" fill="url(#blue2)"/>
  <path d="M12.2 143.6L19.3 139.5C25.9 135.7 34.4 137.9 38.2 144.5L43.2 153.2L19.3 166.9L12.2 154.6C10 150.8 10 146.2 12.2 143.6Z"
        fill="url(#blue2)"/>
</svg>